#!OML:ASF F:\VICON\USERDATA\INSTALL\rory3\rory3.ASF
:FULLY-SPECIFIED
:DEGREES
246
root -0.282361 15.6696 -0.82514 -187.118 54.6058 -186.951
lowerback 9.59988 -0.0719365 -5.24988
upperback -0.592845 -0.731796 -1.1776
thorax -5.97042 -0.195759 1.82455
lowerneck -12.195 -7.33532 -11.9208
upperneck 22.1019 -9.14731 8.09916
head 9.97672 -4.23749 3.68303
rclavicle 1.18687e-013 1.12313e-014
rhumerus -36.194 -4.90286 -84.1279
rradius 26.4531
rwrist 12.6449
rhand -16.498 18.2353
rfingers 7.12502
rthumb 9.71974 -11.5204
lclavicle 1.18687e-013 1.12313e-014
lhumerus -27.5314 0.831283 84.8566
lradius 34.0422
lwrist 5.52238
lhand -13.2624 12.9846
lfingers 7.12502
lthumb 12.8403 42.5696
rfemur -29.7035 5.28447 17.379
rtibia 41.9008
rfoot -12.4989 -17.6972
rtoes -11.1383
lfemur 1.44816 -5.94624 -32.5768
ltibia 22.1032
lfoot -17.7514 10.5632
ltoes -3.50331
247
root -0.187216 15.6803 -0.891895 -187.357 54.2852 -187.224
lowerback 9.61581 -0.140369 -5.45163
upperback -0.502503 -0.842147 -1.22265
thorax -5.87437 -0.246593 1.90612
lowerneck -12.2853 -7.37198 -11.9645
upperneck 22.0382 -9.20229 8.18456
head 9.98402 -4.25748 3.70913
rclavicle -4.08006e-014 -1.09332e-015
rhumerus -36.259 -4.82228 -84.1524
rradius 26.5386
rwrist 12.5224
rhand -16.5449 18.593
rfingers 7.12502
rthumb 9.67444 -11.1648
lclavicle -4.08006e-014 -1.09332e-015
lhumerus -27.382 0.485554 85.0153
lradius 34.5852
lwrist 5.80817
lhand -13.2428 13.0271
lfingers 7.12502
lthumb 12.8592 42.611
rfemur -29.7751 5.3491 17.0741
rtibia 39.9819
rfoot -11.8063 -18.0884
rtoes -10.7958
lfemur 2.55714 -6.02951 -32.8157
ltibia 20.9246
lfoot -17.4131 10.4266
ltoes -4.62747
248
root -0.0895797 15.6842 -0.958124 -188.278 53.9342 -188.284
lowerback 9.72702 -0.167541 -6.13345
upperback -0.456102 -0.963826 -1.41344
thorax -5.87359 -0.284622 2.10593
lowerneck -12.2377 -7.40018 -11.9253
upperneck 21.8935 -9.26588 8.23496
head 9.93082 -4.28177 3.7107
rclavicle -5.6517e-014 -3.18055e-015
rhumerus -36.3862 -4.98402 -84.1086
rradius 26.5414
rwrist 12.6048
rhand -16.5456 18.0494
rfingers 7.12502
rthumb 9.67378 -11.7084
lclavicle -5.6517e-014 -3.18055e-015
lhumerus -27.3092 0.15295 85.1601
lradius 35.0515
lwrist 5.98296
lhand -13.4142 13.0891
lfingers 7.12502
lthumb 12.6939 42.6833
rfemur -29.7706 5.43492 16.2598
rtibia 38.1369
rfoot -11.331 -18.3228
rtoes -9.80568
lfemur 3.7672 -6.14103 -33.5775
ltibia 19.6434
lfoot -17.0222 10.4278
ltoes -5.62169
249
root 0.00791449 15.6908 -1.01964 -188.416 53.7134 -188.538
lowerback 9.79107 -0.183177 -6.31919
upperback -0.481692 -1.01394 -1.49202
thorax -5.93183 -0.301036 2.1352
lowerneck -12.1144 -7.42374 -11.9037
upperneck 21.7209 -9.33413 8.32645
head 9.85709 -4.30697 3.73109
rclavicle 1.5258e-013 -1.81888e-014
rhumerus -36.5234 -5.44489 -83.9932
rradius 26.4705
rwrist 12.927
rhand -16.8267 16.3395
rfingers 7.12502
rthumb 9.40257 -13.4308
lclavicle 1.5258e-013 -1.81888e-014
lhumerus -27.2486 -0.159434 85.2597
lradius 35.4348
lwrist 6.17544
lhand -13.4323 12.9738
lfingers 7.12502
lthumb 12.6764 42.5691
rfemur -29.8789 5.6952 15.9467
rtibia 36.3544
rfoot -11.2731 -18.513
rtoes -8.23392
lfemur 4.93013 -6.16228 -33.7641
ltibia 18.1488
lfoot -16.5146 10.456
ltoes -5.80955
250
root 0.106598 15.7021 -1.0829 -188.228 53.5507 -188.408
lowerback 9.77712 -0.203229 -6.27045
upperback -0.475654 -1.03355 -1.48872
thorax -5.91649 -0.312801 2.11406
lowerneck -12.1128 -7.45445 -11.8651
upperneck 21.6162 -9.39479 8.36861
head 9.82645 -4.32942 3.72959
rclavicle 3.07961e-014 -1.69961e-014
rhumerus -36.6588 -5.58003 -83.9965
rradius 26.5584
rwrist 12.8821
rhand -17.1045 15.1148
rfingers 7.12502
rthumb 9.13451 -14.6674
lclavicle 3.07961e-014 -1.69961e-014
lhumerus -27.1569 -0.507401 85.3805
lradius 35.828
lwrist 6.48896
lhand -13.3801 13.0256
lfingers 7.12502
lthumb 12.7268 42.6177
rfemur -30.0239 6.1103 15.7881
rtibia 34.6663
rfoot -11.6403 -18.5657
rtoes -5.50061
lfemur 6.18058 -6.15485 -33.7057
ltibia 16.49
lfoot -15.9175 10.524
ltoes -6.19802
251
root 0.205821 15.7107 -1.14857 -188.547 53.2757 -188.735
lowerback 9.90171 -0.218799 -6.52826
upperback -0.428895 -1.09046 -1.53345
thorax -5.92965 -0.331963 2.22078
lowerneck -12.1012 -7.4793 -11.8187
upperneck 21.5061 -9.44084 8.37534
head 9.78816 -4.34853 3.71654
rclavicle -1.09481e-013 1.50082e-014
rhumerus -36.7916 -5.72771 -83.9264
rradius 26.6482
rwrist 12.7986
rhand -17.0873 14.8569
rfingers 7.12502
rthumb 9.15106 -14.9245
lclavicle -1.09481e-013 1.50082e-014
lhumerus -27.0767 -0.889012 85.5972
lradius 36.1649
lwrist 6.88729
lhand -13.5095 13.2581
lfingers 7.12502
lthumb 12.602 42.858
rfemur -30.0023 6.57529 15.2703
rtibia 33.0341
rfoot -11.9366 -18.76
rtoes -3.88397
lfemur 7.59564 -5.9862 -33.9304
ltibia 14.8022
lfoot -15.2127 10.4115
ltoes -6.66946
252
root 0.307078 15.7179 -1.21383 -188.948 52.8867 -189.2
lowerback 9.95708 -0.258485 -6.85691
upperback -0.354324 -1.18111 -1.62887
thorax -5.8704 -0.368076 2.31759
lowerneck -12.1067 -7.52572 -11.8335
upperneck 21.4116 -9.52639 8.48295
head 9.77188 -4.37963 3.74343
rclavicle 4.08627e-014 8.94531e-015
rhumerus -36.8446 -5.97116 -83.8426
rradius 26.6497
rwrist 12.8472
rhand -17.0888 14.8197
rfingers 7.12502
rthumb 9.14968 -14.9618
lclavicle 4.08627e-014 8.94531e-015
lhumerus -26.9878 -1.2375 85.7486
lradius 36.5267
lwrist 7.09231
lhand -13.5603 13.3625
lfingers 7.12502
lthumb 12.5531 42.9654
rfemur -29.9819 6.93042 14.6696
rtibia 31.5187
rfoot -11.7904 -19.0907
rtoes -4.64896
lfemur 9.07867 -5.76483 -34.1876
ltibia 12.9085
lfoot -14.3576 10.0464
ltoes -6.01654
253
root 0.414257 15.7264 -1.28127 -189.005 52.5652 -189.349
lowerback 9.86578 -0.344485 -7.02725
upperback -0.33351 -1.30529 -1.65726
thorax -5.78284 -0.426595 2.3993
lowerneck -12.0618 -7.54477 -11.8561
upperneck 21.3374 -9.56845 8.55745
head 9.74713 -4.39532 3.76783
rclavicle -3.12092e-014 -1.27222e-014
rhumerus -36.9883 -5.7488 -83.946
rradius 26.6981
rwrist 12.6579
rhand -17.2272 14.8635
rfingers 7.12502
rthumb 9.01609 -14.9238
lclavicle -3.12092e-014 -1.27222e-014
lhumerus -26.9931 -1.24144 85.7631
lradius 36.7565
lwrist 6.99542
lhand -13.4871 13.3234
lfingers 7.12502
lthumb 12.6236 42.9219
rfemur -30.0219 7.32164 14.2774
rtibia 30.1626
rfoot -11.9657 -19.3496
rtoes -4.63268
lfemur 10.6245 -5.72974 -34.2655
ltibia 10.7848
lfoot -13.4485 9.86057
ltoes -5.36856
254
root 0.521419 15.7297 -1.34893 -189.115 52.2151 -189.633
lowerback 9.77037 -0.449866 -7.2867
upperback -0.377011 -1.46941 -1.70337
thorax -5.7555 -0.498999 2.51749
lowerneck -11.9612 -7.54729 -11.8196
upperneck 21.2331 -9.58708 8.55916
head 9.69144 -4.40469 3.76139
rclavicle -4.14963e-014 3.97569e-016
rhumerus -37.2552 -5.60638 -83.9813
rradius 26.776
rwrist 12.5681
rhand -17.0996 15.051
rfingers 7.12502
rthumb 9.13928 -14.731
lclavicle -4.14963e-014 3.97569e-016
lhumerus -27.0469 -1.17908 85.7634
lradius 36.8374
lwrist 6.97052
lhand -13.3856 13.1449
lfingers 7.12502
lthumb 12.7215 42.7374
rfemur -30.1655 7.5711 13.7978
rtibia 28.9283
rfoot -12.235 -19.6489
rtoes -4.79112
lfemur 12.159 -5.76207 -34.4529
ltibia 8.60477
lfoot -12.5395 9.76675
ltoes -6.11219
255
root 0.629612 15.7293 -1.41334 -189.283 51.8543 -190.025
lowerback 9.66169 -0.511181 -7.56894
upperback -0.403112 -1.5752 -1.80533
thorax -5.70785 -0.542875 2.58041
lowerneck -11.9763 -7.59094 -11.7716
upperneck 21.1653 -9.66318 8.58647
head 9.6778 -4.4343 3.75095
rclavicle 1.8487e-014 1.55052e-014
rhumerus -37.4278 -5.79803 -83.9683
rradius 26.7361
rwrist 12.5919
rhand -17.1695 14.8711
rfingers 7.12502
rthumb 9.07182 -14.9138
lclavicle 1.8487e-014 1.55052e-014
lhumerus -27.0289 -1.25761 85.8037
lradius 36.8456
lwrist 6.85731
lhand -13.4361 12.9997
lfingers 7.12502
lthumb 12.6728 42.5952
rfemur -30.3784 7.76903 13.267
rtibia 27.8218
rfoot -12.2272 -20.0209
rtoes -5.93505
lfemur 13.7836 -5.80264 -34.689
ltibia 6.17958
lfoot -11.3928 9.74116
ltoes -7.47965
256
root 0.745059 15.7321 -1.47908 -189.303 51.5937 -190.156
lowerback 9.54227 -0.522074 -7.72573
upperback -0.380657 -1.59379 -1.85887
thorax -5.61232 -0.550683 2.61147
lowerneck -12.068 -7.66011 -11.6474
upperneck 21.123 -9.76956 8.54399
head 9.68295 -4.47726 3.697
rclavicle 6.15239e-014 -6.16232e-015
rhumerus -37.5522 -6.00476 -83.976
rradius 26.7
rwrist 12.6333
rhand -17.4262 14.5444
rfingers 7.12502
rthumb 8.82403 -15.2512
lclavicle 6.15239e-014 -6.16232e-015
lhumerus -26.9442 -1.26889 85.8439
lradius 36.7722
lwrist 6.59699
lhand -13.4108 12.9917
lfingers 7.12502
lthumb 12.6972 42.5857
rfemur -30.4489 8.03603 12.974
rtibia 26.8782
rfoot -12.3769 -20.1139
rtoes -6.57039
lfemur 16.0674 -5.76418 -34.728
ltibia 2.61217
lfoot -9.57463 9.79547
ltoes -6.99856
257
root 0.863482 15.7328 -1.54753 -189.305 51.3209 -190.254
lowerback 9.38805 -0.552091 -7.88724
upperback -0.365777 -1.63435 -1.88512
thorax -5.50194 -0.569809 2.67612
lowerneck -12.0092 -7.70903 -11.5258
upperneck 20.9759 -9.85914 8.51173
head 9.62146 -4.51651 3.65292
rclavicle 3.84338e-014 -4.57205e-015
rhumerus -37.7067 -6.31219 -83.8645
rradius 26.6539
rwrist 12.7772
rhand -17.4153 14.6793
rfingers 7.12502
rthumb 8.83461 -15.1157
lclavicle 3.84338e-014 -4.57205e-015
lhumerus -26.9113 -1.27291 85.8599
lradius 36.658
lwrist 6.48463
lhand -13.2907 12.9038
lfingers 7.12502
lthumb 12.8129 42.4906
rfemur -30.5134 8.26982 12.7273
rtibia 26.1651
rfoot -12.7221 -20.1058
rtoes -6.40381
lfemur 17.891 -5.73711 -34.7601
ltibia 3.49861e-014
lfoot -8.21254 9.75885
ltoes -7.69903
258
root 0.980942 15.7299 -1.61767 -189.243 50.9908 -190.357
lowerback 9.20745 -0.605393 -8.01645
upperback -0.405652 -1.70385 -1.91549
thorax -5.43257 -0.601897 2.72188
lowerneck -11.8916 -7.7501 -11.5536
upperneck 20.8491 -9.94282 8.62119
head 9.57187 -4.55065 3.68627
rclavicle -1.20513e-014 4.25399e-014
rhumerus -37.9585 -6.4548 -83.8087
rradius 26.6887
rwrist 12.7413
rhand -17.2309 14.7071
rfingers 7.12502
rthumb 9.01251 -15.0804
lclavicle -1.20513e-014 4.25399e-014
lhumerus -26.961 -1.41932 85.9218
lradius 36.4747
lwrist 6.44608
lhand -13.3121 12.7274
lfingers 7.12502
lthumb 12.7924 42.3155
rfemur -30.6365 8.3527 12.4725
rtibia 25.6472
rfoot -13.0865 -19.8989
rtoes -5.77065
lfemur 18.2947 -5.78013 -34.804
ltibia -2.22639e-014
lfoot -8.09232 9.56734
ltoes -9.81606
259
root 1.09941 15.7274 -1.69011 -189.429 50.6234 -190.783
lowerback 9.02287 -0.670784 -8.29625
upperback -0.451102 -1.80469 -2.02525
thorax -5.36172 -0.644205 2.77135
lowerneck -11.8689 -7.8011 -11.5986
upperneck 20.8324 -10.0329 8.73621
head 9.58097 -4.58446 3.72178
rclavicle -2.03444e-014 -4.19436e-014
rhumerus -38.212 -6.48964 -83.8051
rradius 26.7401
rwrist 12.6615
rhand -16.8888 14.4438
rfingers 7.12502
rthumb 9.34267 -15.3292
lclavicle -2.03444e-014 -4.19436e-014
lhumerus -27.039 -1.50902 85.9502
lradius 36.2495
lwrist 6.41007
lhand -13.3772 12.6698
lfingers 7.12502
lthumb 12.7295 42.2618
rfemur -30.7059 8.33334 12.0193
rtibia 25.2128
rfoot -13.3022 -19.6789
rtoes -5.54186
lfemur 18.6797 -5.82552 -35.0636
ltibia 6.36111e-015
lfoot -8.00739 9.37922
ltoes -9.37943
260
root 1.21758 15.7264 -1.75724 -189.239 50.297 -190.826
lowerback 8.8221 -0.752305 -8.35919
upperback -0.530055 -1.90478 -2.05438
thorax -5.3203 -0.691678 2.78443
lowerneck -11.7992 -7.85011 -11.5998
upperneck 20.7368 -10.1168 8.78621
head 9.54685 -4.62165 3.7286
rclavicle -9.59944e-014 -1.94809e-014
rhumerus -38.4326 -6.65706 -83.7244
rradius 26.6339
rwrist 12.7587
rhand -16.8492 14.2266
rfingers 7.12502
rthumb 9.38087 -15.5446
lclavicle -9.59944e-014 -1.94809e-014
lhumerus -27.1697 -1.54244 85.979
lradius 36.0354
lwrist 6.46385
lhand -13.4623 12.8147
lfingers 7.12502
lthumb 12.6475 42.4117
rfemur -30.8091 8.53809 11.8107
rtibia 24.9036
rfoot -13.6472 -19.8082
rtoes -5.30028
lfemur 18.9733 -5.90405 -35.0177
ltibia -7.31528e-014
lfoot -7.83338 9.1533
ltoes -9.01537
